<svg width="50" height="50" viewBox="0 0 100 100" xmlns="http://www.w3.org/2000/svg">
    <!-- 1. Fala dźwiękowa -->
<!--
    <g id="wave">
        <rect x="5" y="40" width="10" height="20" fill="#4CAF50"/>
        <rect x="20" y="30" width="10" height="40" fill="#4CAF50"/>
        <rect x="35" y="20" width="10" height="60" fill="#4CAF50"/>
        <rect x="50" y="10" width="10" height="80" fill="#4CAF50"/>
        <rect x="65" y="20" width="10" height="60" fill="#4CAF50"/>
        <rect x="80" y="30" width="10" height="40" fill="#4CAF50"/>
        <rect x="95" y="40" width="10" height="20" fill="#4CAF50"/>
    </g>
-->
<!--

    &lt;!&ndash; 2. Słuchawki &ndash;&gt;
    <g id="headphones">
        <circle cx="50" cy="50" r="35" stroke="#ff9800" stroke-width="5" fill="none"/>
        <rect x="15" y="60" width="10" height="20" fill="#ff9800"/>
        <rect x="75" y="60" width="10" height="20" fill="#ff9800"/>
    </g>
-->

    <!-- 3. Mikrofon -->
    <g id="microphone">
        <rect x="40" y="20" width="20" height="40" fill="#03a9f4"/>
        <rect x="45" y="60" width="10" height="20" fill="#03a9f4"/>
        <rect x="35" y="80" width="30" height="5" fill="#03a9f4"/>
    </g>
<!--
    &lt;!&ndash; 4. Muzyczna planeta &ndash;&gt;
    <g id="planet">
        <circle cx="50" cy="50" r="30" fill="#673ab7"/>
        <path d="M20,50 A30,10 0 1,1 80,50" stroke="#fff" stroke-width="3" fill="none"/>
    </g>

    &lt;!&ndash; 5. Głośnik &ndash;&gt;
    <g id="speaker">
        <rect x="30" y="20" width="40" height="60" fill="#009688"/>
        <circle cx="50" cy="50" r="10" fill="#fff"/>
    </g>

    &lt;!&ndash; 6. Nutka &ndash;&gt;
    <g id="music-note">
        <circle cx="40" cy="70" r="8" fill="#e91e63"/>
        <circle cx="70" cy="60" r="8" fill="#e91e63"/>
        <path d="M40,70 L70,60 L70,20 L40,30 Z" fill="#e91e63"/>
    </g>

    &lt;!&ndash; 7. Equalizer &ndash;&gt;
    <g id="equalizer">
        <rect x="10" y="40" width="10" height="30" fill="#ffeb3b"/>
        <rect x="30" y="30" width="10" height="40" fill="#ffeb3b"/>
        <rect x="50" y="20" width="10" height="50" fill="#ffeb3b"/>
        <rect x="70" y="10" width="10" height="60" fill="#ffeb3b"/>
    </g>

    &lt;!&ndash; 8. Gwiazdki + dźwięk &ndash;&gt;
    <g id="stars">
        <polygon points="50,10 55,30 70,30 58,40 63,60 50,50 37,60 42,40 30,30 45,30" fill="#fbc02d"/>
        <rect x="10" y="40" width="5" height="30" fill="#fbc02d"/>
        <rect x="85" y="40" width="5" height="30" fill="#fbc02d"/>
    </g>

    &lt;!&ndash; 9. Plik audio &ndash;&gt;
    <g id="audio-file">
        <rect x="30" y="20" width="40" height="60" fill="#795548"/>
        <polygon points="50,20 70,40 50,40" fill="#d7ccc8"/>
        <path d="M40,70 Q50,80 60,70" stroke="#fff" stroke-width="3" fill="none"/>
    </g>

    &lt;!&ndash; 10. Chmura dźwiękowa &ndash;&gt;
    <g id="cloud">
        <ellipse cx="50" cy="50" rx="30" ry="20" fill="#00bcd4"/>
        <circle cx="30" cy="50" r="10" fill="#00bcd4"/>
        <circle cx="70" cy="50" r="10" fill="#00bcd4"/>
        <rect x="45" y="55" width="10" height="15" fill="#fff"/>
    </g>-->
</svg>
